<?xml version="1.0" encoding="utf-8"?>
<!-- Generator: Adobe Illustrator 16.0.0, SVG Export Plug-In . SVG Version: 6.00 Build 0)  -->
<!DOCTYPE svg PUBLIC "-//W3C//DTD SVG 1.1//EN" "http://www.w3.org/Graphics/SVG/1.1/DTD/svg11.dtd">
<svg version="1.1" id="레이어_1" xmlns="http://www.w3.org/2000/svg" xmlns:xlink="http://www.w3.org/1999/xlink" x="0px"
	 y="0px" width="1400px" height="2000px" viewBox="0 0 1400 2000" enable-background="new 0 0 1400 2000" xml:space="preserve">
<g id="레이어_4">
	<path fill="#040000" d="M700.872,114.474c365.808,0,662.358,293.727,662.358,656.065c0,362.333-296.551,656.064-662.358,656.064
		c-365.806,0-662.357-293.731-662.357-656.064C38.515,408.201,335.066,114.474,700.872,114.474z"/>
</g>
<g id="레이어_5">
	<path fill="#FFFFFF" d="M348.436,562.352c0,0-28.386-91.463,9.462-178.203c0,0,78.854-9.462,178.208,70.966
		c0,0,168.745-48.891,335.909-1.58c0,0,111.968-77.961,178.203-69.729c0,0,41.005,88.653,7.887,178.545
		c0,0,185.271,198.717-18.924,419.499c0,0-82.826,82.01-218.449,85.161c0,0,49.704,33.118,48.129,135.622v171.9
		c0,0,7.882,28.387,44.155,22.076c0,0-211.32,77.532-417.915,0.915c0,0,41.005,2.235,42.581-30.881v-126.161
		c0,0-161.676,33.117-219.208-66.236c0,0-22.893-67.814-89.891-115.127c0,0-47.312-31.537,20.5-29.958
		c0,0,55.199-9.462,116.703,93.043c0,0,59.929,77.278,175.051,28.388c0,0,9.463-64.657,39.425-88.313
		c0,0-309.099-21.715-299.636-293.15C280.62,769.125,280.625,615.974,348.436,562.352z"/>
</g>
<g id="레이어_6">
	<path fill="#040000" d="M290.664,1049.357c5.559,2.509,8.761,7.435,7.153,11.01c-1.612,3.571-7.424,4.436-12.988,1.933
		c-5.558-2.51-8.759-7.435-7.147-11.01C279.29,1047.716,285.102,1046.852,290.664,1049.357z"/>
	<path fill="#040000" d="M320.276,1078.427c5.018,3.466,7.277,8.891,5.05,12.114c-2.227,3.225-8.1,3.026-13.118-0.434
		c-5.012-3.466-7.276-8.889-5.049-12.115C309.391,1074.769,315.263,1074.962,320.276,1078.427z"/>
	<path fill="#040000" d="M344.38,1108.653c4.823,4.686,6.293,10.997,3.281,14.098c-3.013,3.104-9.366,1.819-14.195-2.865
		c-4.823-4.686-6.291-10.995-3.279-14.101C333.198,1102.684,339.551,1103.968,344.38,1108.653z"/>
	<path fill="#040000" d="M369.689,1138.268c5.428,4.071,7.71,10.198,5.091,13.69c-2.615,3.488-9.134,3.018-14.563-1.054
		c-5.434-4.07-7.712-10.196-5.097-13.685C357.736,1133.728,364.261,1134.199,369.689,1138.268z"/>
	<path fill="#040000" d="M413.706,1164.78c6.418,3.516,9.911,9.495,7.8,13.354c-2.112,3.857-9.033,4.129-15.451,0.614
		c-6.418-3.517-9.911-9.49-7.795-13.349C400.372,1161.541,407.289,1161.264,413.706,1164.78z"/>
	<path fill="#040000" d="M458.365,1175.073c7.041,0.273,12.608,4.164,12.434,8.692c-0.181,4.523-6.03,7.97-13.072,7.692
		c-7.041-0.272-12.607-4.164-12.432-8.691C445.475,1178.242,451.324,1174.795,458.365,1175.073z"/>
	
		<ellipse transform="matrix(-0.0213 -0.9998 0.9998 -0.0213 -662.775 1713.8877)" fill="#040000" cx="507.479" cy="1181.341" rx="8.463" ry="13.166"/>
</g>
</svg>
