<svg height="512" viewBox="0 0 64 64" width="512" xmlns="http://www.w3.org/2000/svg" xmlns:xlink="http://www.w3.org/1999/xlink"><linearGradient id="New_Gradient_Swatch_1" gradientUnits="userSpaceOnUse" x1="32" x2="32" y1="-1.34" y2="64.88"><stop offset="0" stop-color="#fff33b"/><stop offset=".014" stop-color="#fee72e"/><stop offset=".042" stop-color="#fed51b"/><stop offset=".07" stop-color="#fdca10"/><stop offset=".1" stop-color="#fdc70c"/><stop offset=".4" stop-color="#f3903f"/><stop offset=".8" stop-color="#ed683c"/><stop offset="1" stop-color="#e93e3a"/></linearGradient><linearGradient id="New_Gradient_Swatch_1-3" x1="51" x2="51" xlink:href="#New_Gradient_Swatch_1" y1="-1.34" y2="64.88"/><linearGradient id="New_Gradient_Swatch_1-4" x1="46" x2="46" xlink:href="#New_Gradient_Swatch_1" y1="-1.34" y2="64.88"/><linearGradient id="New_Gradient_Swatch_1-6" x1="9" x2="9" xlink:href="#New_Gradient_Swatch_1" y1="-1.34" y2="64.88"/><linearGradient id="New_Gradient_Swatch_1-7" x1="15" x2="15" xlink:href="#New_Gradient_Swatch_1" y1="-1.34" y2="64.88"/><linearGradient id="New_Gradient_Swatch_1-8" x1="55" x2="55" xlink:href="#New_Gradient_Swatch_1" y1="-1.34" y2="64.88"/><linearGradient id="New_Gradient_Swatch_1-9" x1="49" x2="49" xlink:href="#New_Gradient_Swatch_1" y1="-1.34" y2="64.88"/><path d="m61 48h-1v-37a5.006 5.006 0 0 0 -5-5h-46a5.006 5.006 0 0 0 -5 5v37h-1a1 1 0 0 0 -1 1v4a5.006 5.006 0 0 0 5 5h50a5.006 5.006 0 0 0 5-5v-4a1 1 0 0 0 -1-1zm-55-37a3 3 0 0 1 3-3h46a3 3 0 0 1 3 3v37h-16a1 1 0 0 0 -1 1v2a1 1 0 0 1 -1 1h-16a1 1 0 0 1 -1-1v-2a1 1 0 0 0 -1-1h-16zm54 42a3 3 0 0 1 -3 3h-50a3 3 0 0 1 -3-3v-3h17v1a3 3 0 0 0 3 3h16a3 3 0 0 0 3-3v-1h17z" fill="url(#New_Gradient_Swatch_1)"/><path d="m57 45v-34a2 2 0 0 0 -2-2h-46a2 2 0 0 0 -2 2v34a1 1 0 0 0 1 1h48a1 1 0 0 0 1-1zm-2-1h-46v-33h46z" fill="url(#New_Gradient_Swatch_1)"/><path d="m51 19h2v-5a1 1 0 0 0 -1-1h-3v2h2z" fill="url(#New_Gradient_Swatch_1-3)"/><path d="m45 13h2v2h-2z" fill="url(#New_Gradient_Swatch_1-4)"/><path d="m30 48h4v2h-4z" fill="url(#New_Gradient_Swatch_1)"/><path d="m8 52h2v2h-2z" fill="url(#New_Gradient_Swatch_1-6)"/><path d="m12 52h6v2h-6z" fill="url(#New_Gradient_Swatch_1-7)"/><path d="m54 52h2v2h-2z" fill="url(#New_Gradient_Swatch_1-8)"/><path d="m46 52h6v2h-6z" fill="url(#New_Gradient_Swatch_1-9)"/></svg>